<svg viewBox="46.559999999999974 218.64 2306.8800000000006 1386.72" xmlns="http://www.w3.org/2000/svg" xmlns:xlink="http://www.w3.org/1999/xlink" xmlns:blush="http://design.blush" overflow="visible" width="1000px" height="601.1235955056179px"><rect id="Background Color" fill="#5b3dff" x="8.639999999999986" y="155.76" width="2358.7200000000003" height="1464.48"/><g id="Master/Scenes/Peaceful Place" stroke="none" stroke-width="1" fill="none" fill-rule="evenodd"><g id="Background" transform="translate(-32.000000, 0.000000)"><path d="M1290.961,542.506 L1290.961,1243.304 L975.08,1243.304 L975.08,542.506 L1290.961,542.506 Z M1634.921,542.506 L1634.921,1243.304 L1319.04,1243.304 L1319.04,542.506 L1634.921,542.506 Z M1290.961,426.45 L1290.961,509.506 L975.08,509.506 L975.08,426.45 L1290.961,426.45 Z M1634.921,426.45 L1634.921,509.506 L1319.04,509.506 L1319.04,426.45 L1634.921,426.45 Z" id="window" fill="#FFF"/><g id="sofa" transform="translate(638.138967, 882.965100)"><path d="M94.0355331,485.9655 L66.1925331,611.6105 C63.0125331,625.9645 70.5875331,640.5645 83.0795331,644.1565 C88.5545331,645.7305 94.3315331,644.9565 99.3445331,641.9785 C105.246533,638.4695 109.571533,632.2135 111.212533,624.8145 L139.107533,498.9275 L94.0355331,485.9655 Z M88.7165331,648.9565 C86.4615331,648.9565 84.1985331,648.6405 81.9735331,648.0005 C67.4885331,643.8355 58.6575331,627.1225 62.2885331,610.7445 L90.5915331,483.0235 C90.7105331,482.4845 91.0475331,482.0185 91.5205331,481.7365 C91.9955331,481.454739 92.5645331,481.3795 93.0965331,481.5335 L142.019533,495.6035 C143.035533,495.8955 143.648533,496.9265 143.420533,497.9575 L115.116533,625.6795 C113.239533,634.1525 108.235533,641.3455 101.388533,645.4155 C97.4455331,647.7605 93.0985331,648.9565 88.7165331,648.9565 L88.7165331,648.9565 Z" id="Fill-6" fill="#141414"/><path d="M206.448633,485.9655 L178.605633,611.6105 C175.426633,625.9645 183.001633,640.5655 195.493633,644.1565 C200.970633,645.7325 206.745633,644.9565 211.759633,641.9775 C217.660633,638.4695 221.985633,632.2135 223.624633,624.8145 L251.520633,498.9275 L206.448633,485.9655 Z M201.130633,648.9565 C198.875633,648.9565 196.612633,648.6405 194.387633,648.0005 C179.903633,643.8365 171.071633,627.1225 174.700633,610.7445 L203.004633,483.0235 C203.123633,482.4845 203.460633,482.0185 203.933633,481.7365 C204.408633,481.454739 204.977633,481.3795 205.509633,481.5335 L254.432633,495.6035 C255.448633,495.8955 256.061633,496.9265 255.833633,497.9575 L227.529633,625.6795 C225.652633,634.1525 220.649633,641.3455 213.802633,645.4155 C209.859633,647.7605 205.512633,648.9565 201.130633,648.9565 L201.130633,648.9565 Z" id="Fill-8" fill="#141414"/><path d="M975.486633,498.9275 L1003.38263,624.8145 C1005.02263,632.2135 1009.34763,638.4695 1015.25063,641.9785 C1020.26263,644.9565 1026.03863,645.7315 1031.51463,644.1565 C1044.00663,640.5655 1051.58163,625.9645 1048.40063,611.6105 L1020.55863,485.9655 L975.486633,498.9275 Z M1025.87863,648.9565 C1021.49563,648.9565 1017.14963,647.7605 1013.20663,645.4155 C1006.35863,641.3455 1001.35463,634.1525 999.477633,625.6795 L971.174633,497.9575 C970.945633,496.9265 971.558633,495.8955 972.574633,495.6035 L1021.49863,481.5335 C1022.02863,481.3785 1022.59763,481.454335 1023.07363,481.7375 C1023.54763,482.0185 1023.88363,482.4845 1024.00363,483.0235 L1052.30563,610.7445 C1055.93563,627.1225 1047.10463,643.8355 1032.62063,648.0005 C1030.39663,648.6405 1028.13263,648.9565 1025.87863,648.9565 L1025.87863,648.9565 Z" id="Fill-10" fill="#141414"/><path d="M854.409533,498.9275 L882.305533,624.8145 C883.945533,632.2135 888.270533,638.4695 894.173533,641.9785 C899.185533,644.9565 904.961533,645.7315 910.437533,644.1565 C922.930533,640.5645 930.505533,625.9645 927.324533,611.6105 L899.481533,485.9655 L854.409533,498.9275 Z M904.801533,648.9565 C900.418533,648.9565 896.072533,647.7605 892.129533,645.4155 C885.281533,641.3455 880.277533,634.1525 878.400533,625.6795 L850.097533,497.9575 C849.868533,496.9265 850.481533,495.8955 851.497533,495.6035 L900.421533,481.5335 C900.951533,481.3785 901.520533,481.454335 901.996533,481.7375 C902.470533,482.0185 902.806533,482.4845 902.926533,483.0235 L931.228533,610.7445 C934.859533,627.1225 926.028533,643.8355 911.543533,648.0005 C909.319533,648.6405 907.055533,648.9565 904.801533,648.9565 L904.801533,648.9565 Z" id="Fill-12" fill="#141414"/><path d="M987.724933,507.32 L39.4749331,507.32 L0.210933068,48.44 C-2.16006693,22.537 15.7599331,-2.84217094e-14 38.7269331,-2.84217094e-14 L988.473933,-2.84217094e-14 C1011.44093,-2.84217094e-14 1029.35993,22.537 1026.98893,48.44 L987.724933,507.32 Z" id="Fill-14" fill="#FFC81A"/><path d="M1028.10873,507.5983 L874.460733,507.5983 L874.460733,248.6183 L996.053733,248.6183 C1056.48573,248.6183 1103.93873,300.3953 1098.67973,360.5983 L1093.71273,447.4753 C1090.74073,481.4943 1062.25773,507.5983 1028.10873,507.5983" id="Fill-16" fill="#FFC81A"/><path d="M273.754233,472.3893 L59.7542331,472.3893 L59.7542331,243.4103 L181.348233,243.4103 C241.779233,243.4103 289.232233,295.1873 283.974233,355.3903 L273.754233,472.3893 Z" id="Fill-38" fill="#FFC81A"/><path d="M273.756233,504.3893 C273.709233,504.3893 273.662233,504.3893 273.615233,504.3843 C272.514233,504.3083 271.682233,503.3523 271.759233,502.2503 L281.979233,355.2513 C284.439233,327.0783 274.903233,298.9973 255.819233,278.1743 C236.736233,257.3523 209.592233,245.4103 181.348233,245.4103 L59.7542331,245.4103 C58.6502331,245.4103 57.7542331,244.5143 57.7542331,243.4103 C57.7542331,242.3053 58.6502331,241.4103 59.7542331,241.4103 L181.348233,241.4103 C210.711233,241.4103 238.930233,253.8253 258.769233,275.4723 C278.608233,297.1193 288.521233,326.3123 285.966233,355.5643 L275.749233,502.5283 C275.676233,503.5823 274.797233,504.3893 273.756233,504.3893" id="Fill-39" fill="#FFF"/><path d="M900.734733,356.903 C842.175733,342.505 786.413733,324.078 733.908733,300.959 C722.218733,295.812 716.032733,282.887 719.264733,270.532 C732.895733,218.429 749.294733,169.414 768.497733,123.526 C773.473733,111.634 786.453733,105.202 798.945733,108.384 C859.196733,123.735 915.463733,141.833 965.923733,163.928 C977.912733,169.178 984.164733,182.521 980.484733,195.08 C967.248733,240.255 950.945733,288.743 931.382733,340.756 C926.733733,353.118 913.560733,360.056 900.734733,356.903" id="pillow" fill="#FFF"/><path d="M956.622433,357.3903 L325.070433,357.3903 C323.966433,357.3903 323.070433,356.4943 323.070433,355.3903 C323.070433,354.2863 323.966433,353.3903 325.070433,353.3903 L956.622433,353.3903 C957.726433,353.3903 958.622433,354.2863 958.622433,355.3903 C958.622433,356.4943 957.726433,357.3903 956.622433,357.3903" id="Fill-41" fill="#FFF"/></g><g id="table" transform="translate(1810.466000, 1143.965100)"><g transform="translate(0.000000, 0.875600)"><path d="M95.1249,308.1928 L95.1249,384.8918 C95.1249,385.9958 94.2299,386.8918 93.1249,386.8918 L55.7289,386.8918 C54.6249,386.8918 53.7289,385.9958 53.7289,384.8918 L53.7289,261.3368 C53.7289,260.2328 54.6249,259.3368 55.7289,259.3368 L438.3477,259.3368 C439.4527,259.3368 440.3477,260.2328 440.3477,261.3368 L440.3477,384.8918 C440.3477,385.9958 439.4527,386.8918 438.3477,386.8918 L400.9517,386.8918 C399.8477,386.8918 398.9517,385.9958 398.9517,384.8918 L398.9517,308.1928 L95.1249,308.1928 Z M244.9879,263.3358 L57.7289,263.3368 L57.7289,382.8918 L91.1249,382.8918 L91.1249,306.1928 C91.1249,305.0878 92.0209,304.1928 93.1249,304.1928 L244.9879,304.1918 L244.9879,263.3358 Z M436.3477,263.3368 L249.0889,263.3358 L249.0889,304.1918 L400.9517,304.1928 C402.0557,304.1928 402.9517,305.0878 402.9517,306.1928 L402.9517,382.8918 L436.3477,382.8918 L436.3477,263.3368 Z" id="leg" fill="#141414"/><g id="door-2" transform="translate(-0.000000, -0.000000)"><polygon id="Fill-44" fill="#D3E2F2" points="1.10844667e-12 270.678 243.815 270.678 243.815 -5.68434189e-14 1.10844667e-12 -5.68434189e-14"/><path d="M229.6245,136.551 C229.6245,142.719 224.6245,147.719 218.4565,147.719 C212.2875,147.719 207.2875,142.719 207.2875,136.551 C207.2875,130.382 212.2875,125.382 218.4565,125.382 C224.6245,125.382 229.6245,130.382 229.6245,136.551" id="Fill-45" fill="#FFF"/></g><g id="door" transform="translate(250.692000, -0.000000)"><polygon id="Fill-46" fill="#D3E2F2" points="1.26476607e-12 270.678 243.816 270.678 243.816 -5.68434189e-14 1.26476607e-12 -5.68434189e-14"/><path d="M14.1893,136.551 C14.1893,142.719 19.1903,147.719 25.3583,147.719 C31.5263,147.719 36.5273,142.719 36.5273,136.551 C36.5273,130.382 31.5263,125.382 25.3583,125.382 C19.1903,125.382 14.1893,130.382 14.1893,136.551" id="Fill-47" fill="#FFF"/></g></g></g><g id="Table Object" transform="translate(1650.077640, 310.965100) scale(1 1)" blush:width="608" blush:height="838" blush:component="Table Object"><g id="Table Object/Lamp" stroke="none" stroke-width="1" fill="none" fill-rule="evenodd"><g id="lamp" transform="translate(173.000000, 515.000000)"><path d="M169.10656,126.1131 C169.10656,104.0361 150.52156,86.3001 128.14256,87.6991 C108.37356,88.9351 92.5575601,105.4671 92.1345601,125.2701 C91.9985601,131.6311 93.4065601,137.6491 96.0075601,142.9781 C102.33156,155.9271 106.10056,169.9711 106.10056,184.3821 L106.10056,197.0291 L155.13156,197.0291 L155.13156,184.3741 C155.13156,170.1291 158.60056,156.1311 165.01056,143.4081 C167.63056,138.2091 169.10656,132.3331 169.10656,126.1131" id="Fill-42" fill="#FFF"/><path d="M160.74036,197.3689 L160.74036,196.4369 L100.49136,196.4369 L100.49136,197.3689 C100.49136,210.1489 94.0753601,221.8239 83.8423601,228.6939 C65.6923601,240.8789 54.0013601,260.3899 54.0013601,283.8239 C54.0013601,299.2599 59.0883601,312.2149 67.7363601,322.3299 L193.49536,322.3299 C202.14436,312.2149 207.23036,299.2599 207.23036,283.8239 C207.23036,260.3899 195.53936,240.8789 177.38936,228.6939 C167.15736,221.8239 160.74036,210.1489 160.74036,197.3689" id="Fill-43" fill="#13D6C3"/><path d="M4.58016012,193.615 L256.65216,193.615 L207.83116,4 L53.4001601,4 L4.58016012,193.615 Z M259.23216,197.615 L2.00016012,197.615 C1.38216012,197.615 0.798160116,197.329 0.419160116,196.841 C0.0401601157,196.351 -0.0908398843,195.716 0.0631601157,195.116 L49.9141601,1.501 C50.1421601,0.617 50.9381601,0 51.8511601,0 L209.38116,0 C210.29316,0 211.09016,0.617 211.31716,1.501 L261.16916,195.116 C261.32316,195.716 261.19216,196.351 260.81416,196.841 C260.43516,197.329 259.85116,197.615 259.23216,197.615 L259.23216,197.615 Z" id="Fill-48" fill="#141414"/></g></g></g><g id="Plant" transform="translate(0.285000, 673.194049) scale(1 1)" blush:width="645" blush:height="854" blush:component="Plant"><g id="Plant/Plant 2" stroke="none" stroke-width="1" fill="none" fill-rule="evenodd"><g id="Group" transform="translate(134.000000, 512.000000)"><g id="Leaf-2" transform="translate(115.276256, 0.000000)"><path d="M26.4354237,241.869775 C26.4354237,241.869775 -31.2375763,153.055775 23.7874237,72.3937755 C62.9254237,15.0197755 108.147424,8.08377545 117.142424,3.13977545 C171.031424,-26.4822245 135.860424,161.207775 26.4354237,241.869775" id="Fill-1" fill="#FF4B33"/><path d="M21.9140237,341.384975 C21.2670237,341.384975 20.6340237,341.072975 20.2480237,340.494975 C18.8200237,338.353975 18.2880237,302.567975 23.8390237,256.819975 C29.0540237,213.840975 41.0850237,150.297975 68.7810237,91.6459755 C69.2540237,90.6479755 70.4450237,90.2239755 71.4440237,90.6919755 C72.4420237,91.1639755 72.8700237,92.3559755 72.3980237,93.3549755 C45.2720237,150.797975 33.3220237,213.044975 28.0750237,255.147975 C22.1490237,302.689975 23.1730237,335.774975 23.7620237,338.623975 C24.1190237,339.487975 23.8290237,340.510975 23.0210237,341.048975 C22.6800237,341.276975 22.2950237,341.384975 21.9140237,341.384975" id="Fill-4" fill="#141414"/></g><path d="M14.1998801,116.733275 C25.7728801,115.248275 50.9748801,123.754275 75.8618801,160.237275 C110.85088,211.528275 102.52988,274.523275 75.2038801,280.597275 L75.8473915,280.443393 C81.5315314,317.171101 79.0686123,338.860264 77.9800801,340.494975 C77.5950801,341.072975 76.9610801,341.384975 76.3140801,341.384975 C75.9330801,341.384975 75.5480801,341.276975 75.2070801,341.048975 C74.3850801,340.502975 74.0990801,339.450975 74.4860801,338.577975 C74.9600801,336.760975 76.9600801,319.109975 73.0210801,288.875975 C72.7052537,286.452479 72.3438183,283.896651 71.9303417,281.212607 L71.9245732,281.225602 C-5.73710428,293.687081 -12.5897804,120.16853 14.1998801,116.733275 Z" id="Leaf-2" fill="#141414"/><g id="Leaf-1" transform="translate(275.555689, 116.574462)"><path d="M75.2038801,164.022813 C102.52988,157.948813 110.85088,94.9538133 75.8618801,43.6628133 C50.9748801,7.17981334 25.7728801,-1.32618666 14.1998801,0.158813335 C-12.9621199,3.64181334 -5.54011994,181.968813 75.2038801,164.022813" id="Leaf-09" fill="#FF4B33" transform="translate(49.510592, 82.645724) scale(-1, 1) translate(-49.510592, -82.645724)"/><path d="M64.3140801,224.810513 C63.9330801,224.810513 63.5480801,224.702513 63.2070801,224.474513 C62.3850801,223.928513 62.0990801,222.876513 62.4860801,222.003513 C62.9600801,220.186513 64.9600801,202.535513 61.0210801,172.301513 C57.4650801,145.014513 48.1270801,100.951513 23.8260801,45.9845133 C23.3800801,44.9745133 23.8360801,43.7935133 24.8460801,43.3475133 C25.8530801,42.8995133 27.0370801,43.3565133 27.4840801,44.3675133 C74.5600801,150.848513 67.9710801,220.930513 65.9800801,223.920513 C65.5950801,224.498513 64.9610801,224.810513 64.3140801,224.810513 L64.3140801,224.810513 Z" id="Path" fill="#141414" transform="translate(45.554995, 133.992975) scale(-1, 1) translate(-45.554995, -133.992975)"/></g></g></g></g><g id="Object" transform="translate(1788.000000, 0.000000) scale(1 1)" blush:width="645" blush:height="650" blush:component="Object"><g id="Object/Chat" stroke="none" stroke-width="1" fill="none" fill-rule="evenodd"><g id="bubble" transform="translate(137.000000, 216.750000)"><path d="M338.4576,116.44305 C338.4576,71.63505 295.4871,35.31105 242.4786,35.31105 C189.4701,35.31105 146.4996,71.63505 146.4996,116.44305 C146.4996,161.25105 189.4701,197.57355 242.4786,197.57355 C249.7701,197.57355 256.8621,196.86405 263.6886,195.56205 C267.3561,203.03205 278.3166,218.77155 305.0991,216.91005 C297.2676,213.34755 295.2081,198.28755 295.0776,184.29555 C321.1971,169.79805 338.4576,144.83055 338.4576,116.44305 Z" id="Stroke-1" stroke="#141414" stroke-width="6" stroke-linecap="round" stroke-linejoin="round"/><path d="M212.68395,118.55535 C212.68395,124.23285 208.08195,128.83485 202.40445,128.83485 C196.72695,128.83485 192.12495,124.23285 192.12495,118.55535 C192.12495,112.87785 196.72695,108.27585 202.40445,108.27585 C208.08195,108.27585 212.68395,112.87785 212.68395,118.55535" id="Fill-3" fill="#141414"/><path d="M253.02285,118.55535 C253.02285,124.23285 248.42085,128.83485 242.74335,128.83485 C237.06585,128.83485 232.46385,124.23285 232.46385,118.55535 C232.46385,112.87785 237.06585,108.27585 242.74335,108.27585 C248.42085,108.27585 253.02285,112.87785 253.02285,118.55535" id="Fill-5" fill="#141414"/><path d="M293.3616,118.55535 C293.3616,124.23285 288.7596,128.83485 283.0821,128.83485 C277.4046,128.83485 272.8026,124.23285 272.8026,118.55535 C272.8026,112.87785 277.4046,108.27585 283.0821,108.27585 C288.7596,108.27585 293.3616,112.87785 293.3616,118.55535" id="Fill-7" fill="#141414"/><path d="M0.0003,85.66605 C0.0003,40.85805 42.9708,4.53405 95.9793,4.53405 C148.9878,4.53405 191.9583,40.85805 191.9583,85.66605 C191.9583,130.47405 148.9878,166.79655 95.9793,166.79655 C88.6878,166.79655 81.5958,166.08705 74.7693,164.78505 C71.1018,172.25505 60.1413,187.99305 33.3588,186.13305 C41.1903,182.57055 43.2498,167.51055 43.3803,153.51855 C17.2608,139.01955 0.0003,114.05355 0.0003,85.66605" id="Fill-9" fill="#FF4B33"/><path d="M65.05035,89.42925 C65.05035,95.10675 60.44835,99.70875 54.77085,99.70875 C49.09335,99.70875 44.49135,95.10675 44.49135,89.42925 C44.49135,83.75175 49.09335,79.14975 54.77085,79.14975 C60.44835,79.14975 65.05035,83.75175 65.05035,89.42925" id="Fill-11" fill="#FFF"/><path d="M105.38925,89.42925 C105.38925,95.10675 100.78725,99.70875 95.10975,99.70875 C89.43225,99.70875 84.83025,95.10675 84.83025,89.42925 C84.83025,83.75175 89.43225,79.14975 95.10975,79.14975 C100.78725,79.14975 105.38925,83.75175 105.38925,89.42925" id="Fill-13" fill="#FFF"/><path d="M145.7289,89.42925 C145.7289,95.10675 141.1269,99.70875 135.4494,99.70875 C129.7719,99.70875 125.1699,95.10675 125.1699,89.42925 C125.1699,83.75175 129.7719,79.14975 135.4494,79.14975 C141.1269,79.14975 145.7289,83.75175 145.7289,89.42925" id="Fill-15" fill="#FFF"/><line x1="326.701" y1="0" x2="316.882" y2="26.132" id="Stroke-17" stroke="#141414" stroke-width="6" stroke-linecap="round" stroke-linejoin="round"/><line x1="357.261" y1="24.474" x2="336.203" y2="41.747" id="Stroke-19" stroke="#141414" stroke-width="6" stroke-linecap="round" stroke-linejoin="round"/><line x1="371.707" y1="60.276" x2="347.509" y2="63.73" id="Stroke-21" stroke="#141414" stroke-width="6" stroke-linecap="round" stroke-linejoin="round"/></g></g></g><g id="Object" transform="translate(181.000000, 123.000000) scale(1 1)" blush:width="645" blush:height="650" blush:component="Object"><g id="Object/Abstract 1" stroke="none" stroke-width="1" fill="none" fill-rule="evenodd"><path d="M578.8945,268.1415 C578.8945,320.6875 536.2975,363.2835 483.7525,363.2835 C431.2075,363.2835 388.6115,320.6875 388.6115,268.1415 C388.6115,215.5965 431.2075,172.9995 483.7525,172.9995 C536.2975,172.9995 578.8945,215.5965 578.8945,268.1415" id="Fill-1" fill="#141414"/><path d="M70,385.397 L353.868,385.397 L353.868,200.889 L70,200.889 L70,385.397 Z M355.868,389.397 L68,389.397 C66.896,389.397 66,388.502 66,387.397 L66,198.89 C66,197.785 66.896,196.89 68,196.89 L355.868,196.89 C356.973,196.89 357.868,197.785 357.868,198.89 L357.868,387.397 C357.868,388.502 356.973,389.397 355.868,389.397 L355.868,389.397 Z" id="Fill-4" fill="#141414"/><polygon id="Fill-6" fill="#FF4B33" points="430.3965 487.3867 144.3235 455.2907 165.3405 267.9587 451.4145 300.0547"/></g></g></g><g id="Character-1" transform="translate(638.000000, 664.000000)"><g id="Lower Body Sit" transform="translate(248.110060, 340.423841) scale(0.9398111111111112 0.9403973941368078)" blush:width="845.83" blush:height="577.404" blush:component="Lower Body Sit"><g id="Lower Body Sit/Sitting Chill" stroke="none" stroke-width="1" fill="none" fill-rule="evenodd"><g id="Sitting" transform="translate(155.000018, 120.000000)"><g id="shoe-2" transform="translate(430.585859, 335.670330)"><polyline id="SKIN" fill="#FFF" points="2.00052305 25.24617 39.0215231 89.81617 109.617523 82.06817 77.7635231 2.00117"/><path d="M39.0201231,91.81657 C38.3101231,91.81657 37.6451231,91.43757 37.2861231,90.81157 L0.26512305,26.24157 C-0.28387695,25.28257 0.0471230504,24.06057 1.00512305,23.51057 C1.96412305,22.96257 3.18612305,23.29457 3.73612305,24.25157 L40.1051231,87.68557 L106.789123,80.36757 L75.9051231,2.74057 C75.4971231,1.71357 75.9981231,0.550570003 77.0241231,0.142570003 C78.0491231,-0.266429997 79.2141231,0.234570003 79.6221231,1.26157 L111.476123,81.32957 C111.707123,81.90957 111.654123,82.56357 111.332123,83.09857 C111.010123,83.63357 110.457123,83.98857 109.835123,84.05657 L39.2391231,91.80457 C39.1661231,91.81257 39.0931231,91.81657 39.0201231,91.81657" id="Fill-2" fill="#141414"/><path d="M27.7740231,82.46297 C27.9370231,81.42697 28.8730231,80.69297 29.9190231,80.78097 C30.9150231,80.86597 32.1750231,80.98997 33.6620231,81.13497 C42.7640231,82.02597 61.7060231,83.87997 79.3420231,82.25797 C79.3580231,82.25697 79.3720231,82.25497 79.3870231,82.25397 C89.7760231,81.28897 98.6480231,77.59897 104.372023,71.86097 C104.826023,71.40497 105.472023,71.19797 106.110023,71.29997 C137.109023,76.36997 159.505023,80.03297 176.716023,89.33797 C179.741023,90.97397 190.783023,98.31297 189.550023,104.34297 C188.980023,107.13197 186.182023,108.77797 181.234023,109.23697 C163.167023,110.91397 124.253023,114.62797 89.9200231,117.90497 C62.1390231,120.55797 38.1480231,122.84797 29.1130231,123.68597 C28.1590231,123.77497 27.2560231,123.42197 26.5730231,122.69297 C22.5900231,118.44597 26.0860231,93.14397 27.7740231,82.46297" id="Fill-22" fill="#FFC81A"/><path d="M30.2906231,132.42197 L186.455623,117.92597 C189.051623,117.68497 190.959623,115.38597 190.718623,112.79097 L190.574623,111.23697 C190.333623,108.64297 188.034623,106.73397 185.438623,106.97497 L29.2736231,121.47097 C26.6796231,121.71097 24.7696231,124.01097 25.0116231,126.60597 L25.1556231,128.15897 C25.3956231,130.75397 27.6956231,132.66197 30.2906231,132.42197" id="Fill-24" fill="#141414"/><path d="M138.869723,87.18277 C139.660723,87.10977 140.378723,86.59277 140.670723,85.79677 C143.345723,78.51077 149.887723,79.62577 150.624723,79.77977 C151.769723,80.01277 152.896723,79.28177 153.140723,78.13777 C153.381723,76.99377 152.660723,75.86977 151.517723,75.61977 C147.790723,74.80677 139.890723,75.58177 136.678723,84.33177 C136.272723,85.43477 136.838723,86.65677 137.940723,87.06077 C138.247723,87.17377 138.563723,87.21077 138.869723,87.18277" id="Fill-27" fill="#141414"/><path d="M119.695823,83.81847 C120.486823,83.74447 121.204823,83.22847 121.496823,82.43247 C124.172823,75.14647 130.714823,76.26147 131.450823,76.41547 C132.595823,76.64947 133.722823,75.91647 133.965823,74.77247 C134.207823,73.62947 133.485823,72.50547 132.342823,72.25547 C128.613823,71.44347 120.714823,72.21947 117.504823,80.96747 C117.098823,82.07047 117.664823,83.29247 118.767823,83.69647 C119.074823,83.80847 119.389823,83.84647 119.695823,83.81847" id="Fill-29" fill="#141414"/></g><g id="leg-2" transform="translate(234.932082, 3.798297)"><path d="M2.27373675e-13,2.09290255 C2.27373675e-13,2.09290255 153.336,-16.3850975 197.91,56.4679025 C233.678,114.925903 325.622,325.792903 322.73,332.196903 C312.914,353.931903 220.78,374.736903 160.375,368.462903 C160.375,368.462903 93.683,53.6179025 2.27373675e-13,2.09290255" id="Fill-4" fill="#0B379B"/><path d="M214.946747,351.895877 C216.019747,351.644877 217.099747,352.301877 217.356747,353.375877 C217.579747,354.307877 217.773747,355.171877 217.938747,355.964877 C218.163747,357.046877 217.468747,358.105877 216.387747,358.329877 C216.250747,358.358877 216.113747,358.371877 215.978747,358.371877 C215.050747,358.371877 214.218747,357.723877 214.022747,356.778877 C213.865747,356.021877 213.678747,355.195877 213.465747,354.305877 C213.209747,353.231877 213.872747,352.151877 214.946747,351.895877 Z M208.742147,330.708277 C209.796147,330.381277 210.917147,330.967277 211.246147,332.022277 C212.338147,335.525277 213.322147,338.766277 214.171147,341.657277 C214.483147,342.717277 213.875147,343.828277 212.816147,344.139277 C212.628147,344.195277 212.438147,344.221277 212.251147,344.221277 C211.387147,344.221277 210.589147,343.656277 210.333147,342.784277 C209.490147,339.915277 208.513147,336.694277 207.428147,333.212277 C207.099147,332.157277 207.688147,331.036277 208.742147,330.708277 Z M201.928147,309.720277 C202.976147,309.371277 204.108147,309.942277 204.455147,310.990277 C205.544147,314.276277 206.591147,317.463277 207.587147,320.530277 C207.928147,321.581277 207.353147,322.710277 206.303147,323.051277 C206.097147,323.117277 205.889147,323.149277 205.685147,323.149277 C204.841147,323.149277 204.057147,322.611277 203.782147,321.766277 C202.788147,318.705277 201.745147,315.526277 200.658147,312.248277 C200.311147,311.200277 200.879147,310.068277 201.928147,309.720277 Z M194.861047,288.826377 C195.907047,288.469377 197.044047,289.025377 197.402047,290.071377 C198.503047,293.290377 199.580047,296.461377 200.631047,299.568377 C200.985047,300.615377 200.423047,301.750377 199.377047,302.103377 C199.164047,302.175377 198.948047,302.210377 198.736047,302.210377 C197.902047,302.210377 197.124047,301.683377 196.842047,300.849377 C195.793047,297.746377 194.716047,294.581377 193.616047,291.366377 C193.259047,290.321377 193.817047,289.183377 194.861047,288.826377 Z M187.649547,267.987477 C188.691547,267.622477 189.832547,268.174477 190.196547,269.217477 C191.304547,272.397477 192.403547,275.558477 193.486547,278.688477 C193.847547,279.732477 193.295547,280.871477 192.251547,281.232477 C192.034547,281.307477 191.813547,281.343477 191.596547,281.343477 C190.767547,281.343477 189.993547,280.824477 189.707547,279.997477 C188.624547,276.869477 187.527547,273.711477 186.419547,270.534477 C186.055547,269.491477 186.606547,268.351477 187.649547,267.987477 Z M180.325947,247.169377 C181.366947,246.799377 182.510947,247.346377 182.878947,248.387377 C183.993947,251.543377 185.109947,254.704377 186.218947,257.858377 C186.584947,258.900377 186.037947,260.043377 184.995947,260.409377 C184.776947,260.486377 184.552947,260.523377 184.331947,260.523377 C183.506947,260.523377 182.734947,260.008377 182.445947,259.186377 C181.335947,256.034377 180.222947,252.875377 179.107947,249.721377 C178.739947,248.679377 179.284947,247.537377 180.325947,247.169377 Z M172.938347,226.414977 C173.974347,226.040977 175.123347,226.583977 175.495347,227.624977 C176.610347,230.745977 177.734347,233.896977 178.862347,237.066977 C179.233347,238.107977 178.689347,239.251977 177.649347,239.621977 C177.428347,239.700977 177.201347,239.738977 176.978347,239.738977 C176.156347,239.738977 175.386347,239.227977 175.095347,238.408977 C173.967347,235.238977 172.843347,232.089977 171.727347,228.970977 C171.356347,227.930977 171.898347,226.785977 172.938347,226.414977 Z M165.480247,205.660277 C166.520247,205.288277 167.666247,205.825277 168.041247,206.863277 C169.154247,209.951277 170.288247,213.100277 171.437247,216.299277 C171.811247,217.338277 171.270247,218.483277 170.230247,218.856277 C170.008247,218.937277 169.779247,218.975277 169.555247,218.975277 C168.734247,218.975277 167.966247,218.467277 167.673247,217.650277 C166.524247,214.454277 165.391247,211.306277 164.277247,208.220277 C163.903247,207.181277 164.441247,206.035277 165.480247,205.660277 Z M157.965547,184.920277 C159.006547,184.541277 160.150547,185.079277 160.528547,186.116277 C161.631547,189.150277 162.773547,192.300277 163.950547,195.545277 C164.326547,196.584277 163.789547,197.730277 162.751547,198.106277 C162.525547,198.188277 162.296547,198.227277 162.069547,198.227277 C161.251547,198.227277 160.483547,197.721277 160.188547,196.908277 C159.013547,193.663277 157.871547,190.515277 156.768547,187.483277 C156.391547,186.445277 156.926547,185.298277 157.965547,184.920277 Z" id="Combined-Shape" fill="#FFF" style="mix-blend-mode:overlay"/></g><g id="shoe-1" transform="translate(225.480682, 373.604259)"><polyline id="SKIN" fill="#FFF" points="16.1555 2.000741 9.7155 52.647741 80.2215 58.520741 96.3305 9.391741"/><path d="M80.2229,60.520341 C80.1669,60.520341 80.1119,60.518341 80.0559,60.513341 L9.5489,54.641341 C9.0049,54.596341 8.5039,54.331341 8.1599,53.907341 C7.8179,53.483341 7.6619,52.937341 7.7309,52.396341 L14.1709,1.749341 C14.3109,0.651340996 15.3309,-0.123659004 16.4079,0.0163409959 C17.5029,0.156340996 18.2789,1.157341 18.1399,2.252341 L11.9619,50.829341 L78.8139,56.396341 L94.4299,8.768341 C94.7739,7.719341 95.9009,7.145341 96.9529,7.491341 C98.0029,7.834341 98.5749,8.964341 98.2309,10.014341 L82.1219,59.143341 C81.8519,59.970341 81.0799,60.520341 80.2229,60.520341" id="Fill-8" fill="#141414"/><path d="M6.8313,49.910941 C7.0893,48.893941 8.0893,48.250941 9.1223,48.434941 C10.1053,48.611941 11.3503,48.850941 12.8153,49.133941 C21.7973,50.861941 40.4863,54.458941 58.1973,54.472941 L58.2423,54.472941 C68.6763,54.472941 77.8523,51.618941 84.0803,46.433941 C84.5753,46.021941 85.2373,45.875941 85.8633,46.035941 C116.2613,53.949941 138.2243,59.667941 154.5003,70.522941 C157.3603,72.431941 167.6773,80.759941 165.8933,86.649941 C165.0673,89.373941 162.1293,90.754941 157.1593,90.754941 C139.0153,90.754941 99.9243,90.855941 65.4353,90.945941 C37.5283,91.018941 13.4283,91.081941 4.3543,91.081941 C3.3953,91.081941 2.5303,90.646941 1.9173,89.857941 C-1.6557,85.261941 4.1633,60.389941 6.8313,49.910941" id="Fill-10" fill="#FFC81A"/><path d="M4.72,99.889441 L161.556,99.889441 C164.162,99.889441 166.276,97.776441 166.276,95.169441 L166.276,93.610441 C166.276,91.003441 164.162,88.890441 161.556,88.890441 L4.72,88.890441 C2.114,88.890441 -8.52651283e-14,91.003441 -8.52651283e-14,93.610441 L-8.52651283e-14,95.169441 C-8.52651283e-14,97.776441 2.114,99.889441 4.72,99.889441" id="Fill-12" fill="#141414"/><path d="M117.0149,64.878741 C117.8099,64.878741 118.5719,64.431741 118.9359,63.665741 C122.2729,56.657741 128.6839,58.372741 129.4049,58.593741 C130.5229,58.932741 131.7119,58.307741 132.0599,57.191741 C132.4069,56.073741 131.7919,54.888741 130.6779,54.534741 C127.0419,53.380741 119.1039,53.422741 115.0959,61.837741 C114.5909,62.898741 115.0409,64.166741 116.1019,64.671741 C116.3969,64.812741 116.7079,64.878741 117.0149,64.878741" id="Fill-15" fill="#141414"/><path d="M98.2337,59.756641 C99.0287,59.756641 99.7917,59.309641 100.1557,58.543641 C103.4927,51.535641 109.9037,53.250641 110.6237,53.471641 C111.7427,53.811641 112.9317,53.185641 113.2787,52.069641 C113.6257,50.951641 113.0107,49.766641 111.8967,49.412641 C108.2567,48.259641 100.3207,48.302641 96.3157,56.715641 C95.8107,57.776641 96.2607,59.044641 97.3217,59.549641 C97.6167,59.690641 97.9267,59.756641 98.2337,59.756641" id="Fill-17" fill="#141414"/></g><g id="leg-1"><path d="M6.99558206,0 C6.99558206,0 -15.8584179,74.987 23.8805821,126.245 C53.2615821,164.141 167.334582,174.315 243.103582,150.631 C244.407582,146.749 248.663582,133.773 252.497582,118.711 C252.770582,117.641 253.859582,116.994 254.929582,117.266 C255.999582,117.539 256.646582,118.627 256.374582,119.697 C252.746582,133.949 248.742582,146.354 247.169582,151.083 L180.188582,361.201 C228.627582,385.597 279.793582,400.234 346.492582,397.076 C346.492582,397.076 367.749582,308.853 381.030582,228.861 C395.412582,142.245 446.740582,2 274.828582,2 L6.99558206,0 Z" id="Fill-19" fill="#02BAD3"/><path d="M213.487578,366.712933 C213.919578,365.695933 215.093578,365.219933 216.109578,365.652933 C217.127578,366.084933 217.600578,367.257933 217.169578,368.274933 C216.480578,369.897933 215.838578,371.264933 215.262578,372.339933 C214.902578,373.012933 214.212578,373.395933 213.498578,373.395933 C213.179578,373.395933 212.856578,373.319933 212.555578,373.158933 C211.582578,372.636933 211.215578,371.424933 211.737578,370.451933 C212.255578,369.481933 212.844578,368.223933 213.487578,366.712933 Z M220.817178,346.076833 C221.155178,345.024833 222.277178,344.443833 223.332178,344.782833 C224.384178,345.119833 224.964178,346.245833 224.626178,347.297833 C223.505178,350.793833 222.437178,354.012833 221.452178,356.868833 C221.166178,357.696833 220.391178,358.217833 219.561178,358.217833 C219.346178,358.217833 219.125178,358.180833 218.909178,358.106833 C217.865178,357.746833 217.311178,356.607833 217.671178,355.563833 C218.646178,352.735833 219.705178,349.544833 220.817178,346.076833 Z M227.268178,325.017633 C227.580178,323.958633 228.691178,323.354633 229.752178,323.665633 C230.812178,323.977633 231.417178,325.090633 231.104178,326.149633 C230.121178,329.478633 229.158178,332.692633 228.221178,335.773633 C227.959178,336.636633 227.166178,337.192633 226.309178,337.192633 C226.115178,337.192633 225.920178,337.164633 225.726178,337.104633 C224.669178,336.783633 224.073178,335.666633 224.395178,334.609633 C225.328178,331.538633 226.287178,328.334633 227.268178,325.017633 Z M233.368078,303.843533 C233.669078,302.780533 234.774078,302.165533 235.836078,302.461533 C236.899078,302.761533 237.518078,303.866533 237.218078,304.929533 C236.291078,308.211533 235.374078,311.432533 234.470078,314.579533 C234.218078,315.457533 233.418078,316.028533 232.549078,316.028533 C232.366078,316.028533 232.181078,316.003533 231.996078,315.949533 C230.934078,315.645533 230.320078,314.537533 230.626078,313.476533 C231.528078,310.333533 232.443078,307.119533 233.368078,303.843533 Z M239.268778,282.608633 C239.559778,281.543633 240.660778,280.912633 241.725778,281.208633 C242.790778,281.500633 243.417778,282.600633 243.125778,283.665633 C242.234778,286.922633 241.344778,290.148633 240.460778,293.333633 C240.215778,294.219633 239.411778,294.800633 238.535778,294.800633 C238.358778,294.800633 238.178778,294.775633 237.999778,294.726633 C236.935778,294.431633 236.311778,293.329633 236.607778,292.265633 C237.489778,289.084633 238.376778,285.861633 239.268778,282.608633 Z M245.029678,261.336533 C245.315678,260.270533 246.407678,259.635533 247.478678,259.922533 C248.545678,260.208533 249.178678,261.305533 248.892678,262.371533 C248.025678,265.609533 247.155678,268.839533 246.286678,272.053533 C246.044678,272.944533 245.238678,273.531533 244.356678,273.531533 C244.183678,273.531533 244.007678,273.508533 243.832678,273.461533 C242.766678,273.172533 242.136678,272.074533 242.424678,271.008533 C243.293678,267.798533 244.162678,264.570533 245.029678,261.336533 Z M250.689978,240.026233 C250.970978,238.958233 252.067978,238.319233 253.132978,238.600233 C254.200978,238.881233 254.838978,239.976233 254.558978,241.043233 C253.710978,244.261233 252.857978,247.491233 251.997978,250.724233 C251.760978,251.620233 250.950978,252.210233 250.066978,252.210233 C249.896978,252.210233 249.723978,252.189233 249.551978,252.143233 C248.484978,251.860233 247.848978,250.764233 248.132978,249.697233 C248.989978,246.467233 249.843978,243.240233 250.689978,240.026233 Z M256.267278,218.698233 C256.543278,217.629233 257.631278,216.985233 258.705278,217.265233 C259.774278,217.542233 260.416278,218.634233 260.138278,219.703233 C259.307278,222.905233 258.464278,226.142233 257.610278,229.406233 C257.376278,230.305233 256.565278,230.901233 255.677278,230.901233 C255.510278,230.901233 255.340278,230.879233 255.170278,230.834233 C254.101278,230.556233 253.462278,229.463233 253.741278,228.394233 C254.593278,225.132233 255.435278,221.897233 256.267278,218.698233 Z M261.774178,197.348833 C262.049178,196.278833 263.141178,195.633833 264.208178,195.907833 C265.278178,196.181833 265.924178,197.271833 265.649178,198.341833 C264.836178,201.515833 264.002178,204.757833 263.152178,208.053833 C262.920178,208.955833 262.107178,209.553833 261.217178,209.553833 C261.052178,209.553833 260.884178,209.533833 260.717178,209.490833 C259.646178,209.215833 259.003178,208.124833 259.279178,207.054833 C260.129178,203.761833 260.961178,200.521833 261.774178,197.348833 Z M267.225478,175.974033 C267.496478,174.904033 268.577478,174.253033 269.655478,174.527033 C270.726478,174.798033 271.374478,175.886033 271.102478,176.957033 C270.310478,180.083033 269.485478,183.330033 268.632478,186.679033 C268.400478,187.584033 267.587478,188.185033 266.694478,188.185033 C266.531478,188.185033 266.365478,188.166033 266.199478,188.124033 C265.129478,187.850033 264.482478,186.761033 264.755478,185.691033 C265.608478,182.343033 266.433478,179.098033 267.225478,175.974033 Z M272.622978,154.568933 C272.892978,153.497933 273.981978,152.852933 275.049978,153.114933 C276.120978,153.383933 276.772978,154.469933 276.503978,155.541933 C275.751978,158.538933 274.933978,161.796933 274.054978,165.280933 C273.824978,166.187933 273.010978,166.791933 272.116978,166.791933 C271.954978,166.791933 271.789978,166.771933 271.625978,166.730933 C270.554978,166.460933 269.905978,165.373933 270.175978,164.302933 C271.054978,160.819933 271.872978,157.563933 272.622978,154.568933 Z M277.973678,133.083233 C278.238678,132.010233 279.324678,131.356233 280.394678,131.620233 C281.466678,131.884233 282.122678,132.968233 281.858678,134.040233 C281.858678,134.040233 280.981678,137.598233 279.424678,143.848233 C279.198678,144.757233 278.382678,145.365233 277.486678,145.365233 C277.326678,145.365233 277.163678,145.346233 277.000678,145.305233 C275.929678,145.038233 275.276678,143.953233 275.543678,142.881233 C277.098678,136.639233 277.973678,133.085233 277.973678,133.083233 Z M169.583982,61.3608 C173.029982,61.4038 176.365982,61.4248 179.562982,61.4288 C180.666982,61.4298 181.560982,62.3268 181.559983,63.4308 C181.558982,64.5348 180.663982,65.4288 179.559982,65.4288 L179.559982,65.4288 C176.345982,65.4248 172.994982,65.4038 169.534982,65.3608 C168.429982,65.3468 167.544982,64.4408 167.558982,63.3358 C167.572982,62.2398 168.464982,61.3608 169.557982,61.3608 L169.557982,61.3608 Z M201.520982,61.1993 C202.621982,61.1553 203.540982,62.0493 203.564982,63.1543 C203.589982,64.2583 202.714982,65.1733 201.610982,65.1983 C198.630982,65.2653 195.266982,65.3253 191.585982,65.3673 L191.585982,65.3673 L191.563982,65.3673 C190.468982,65.3673 189.576982,64.4873 189.563982,63.3903 C189.550982,62.2863 190.436982,61.3803 191.541982,61.3673 C195.204982,61.3253 198.554982,61.2663 201.520982,61.1993 Z M147.643782,60.795 C150.909782,60.926 154.263782,61.038 157.612782,61.127 C158.716782,61.157 159.588782,62.076 159.558782,63.18 C159.529782,64.266 158.639782,65.127 157.560782,65.127 C157.542782,65.127 157.524782,65.127 157.506782,65.126 C154.139782,65.036 150.767782,64.924 147.483782,64.793 C146.380782,64.748 145.521782,63.817 145.565782,62.714 C145.609782,61.61 146.557782,60.757 147.643782,60.795 Z M125.594316,59.542511 L125.744882,59.549 C128.956882,59.792 132.302882,60.015 135.690882,60.212 C136.793882,60.276 137.635882,61.222 137.570882,62.325 C137.508882,63.388 136.627882,64.209 135.576882,64.209 C135.537882,64.209 135.497882,64.208 135.458882,64.205 C132.046882,64.006 128.677882,63.782 125.442882,63.537 C124.341882,63.454 123.516882,62.494 123.599882,61.392 C123.682882,60.292 124.632882,59.46 125.744882,59.549 Z M101.914782,57.9569 C102.166782,56.8809 103.247782,56.2149 104.318782,56.4679 C107.385782,57.1889 110.630782,57.8039 113.964782,58.2979 C115.057782,58.4599 115.811782,59.4769 115.650782,60.5689 C115.503782,61.5629 114.649782,62.2769 113.673782,62.2769 C113.576782,62.2769 113.477782,62.2699 113.378782,62.2549 C109.934782,61.7449 106.578782,61.1079 103.403782,60.3609 C102.328782,60.1089 101.661782,59.0319 101.914782,57.9569 Z M99.5578821,7.1487 C100.608882,6.8167 101.731882,7.4007 102.064882,8.4537 C102.165882,8.7727 111.354882,38.9397 87.7278821,50.8677 C89.4538821,51.6627 91.2388821,52.4137 93.0848821,53.1017 C94.1198821,53.4867 94.6458821,54.6387 94.2598821,55.6737 C93.9608821,56.4787 93.1968821,56.9757 92.3858821,56.9757 C92.1538821,56.9757 91.9178821,56.9357 91.6878821,56.8497 C88.3908821,55.6217 85.2438821,54.2157 82.3358821,52.6707 C82.1038821,52.5477 81.9088821,52.3837 81.7498821,52.1957 C81.5038821,51.9807 81.2938821,51.7197 81.1748821,51.3917 C80.7978821,50.3537 81.3338821,49.2057 82.3718821,48.8287 C92.8028821,45.0367 98.6608821,37.3917 99.7818821,26.1057 C100.644882,17.4217 98.2738821,9.7327 98.2498821,9.6567 C97.9188821,8.6027 98.5048821,7.4797 99.5578821,7.1487 Z M64.9108821,35.7675 C65.7608821,35.0635 67.0228821,35.1825 67.7268821,36.0335 C69.7128821,38.4345 72.0078821,40.7015 74.5448821,42.7715 C75.4008821,43.4695 75.5288821,44.7295 74.8308821,45.5855 C74.4348821,46.0705 73.8598821,46.3215 73.2798821,46.3215 C72.8348821,46.3215 72.3878821,46.1735 72.0168821,45.8715 C69.2778821,43.6375 66.7968821,41.1855 64.6448821,38.5835 C63.9408821,37.7325 64.0598821,36.4725 64.9108821,35.7675 Z M56.8509821,15.5923 C57.9549821,15.5153 58.9109821,16.3293 58.9979821,17.4283 C59.0039821,17.4993 59.3419821,21.2203 61.6519821,26.3513 C62.1049821,27.3593 61.6559821,28.5433 60.6489821,28.9963 C60.3819821,29.1163 60.1029821,29.1733 59.8289821,29.1733 C59.0659821,29.1733 58.3379821,28.7343 58.0039821,27.9933 C55.3739821,22.1503 55.0239821,17.9173 55.0099821,17.7403 C54.9259821,16.6383 55.7499821,15.6773 56.8509821,15.5923 Z" id="Combined-Shape" fill-opacity=".8" fill="#FFF" style="mix-blend-mode:overlay"/></g></g></g></g><g id="Upper Body" transform="translate(255.628547, 89.337748) scale(0.9398099999999999 0.9403981818181819)" blush:width="563.886" blush:height="517.219" blush:component="Upper Body"><g id="Upper Body/Holding Document" stroke="none" stroke-width="1" fill="none" fill-rule="evenodd"><g id="hand-1" transform="translate(401.999900, 100.999468)"><path d="M19.092,24.9954324 C21.323,19.1414324 30.848,27.6354324 32.522,39.1524324 C34.409,28.7544324 38.786,3.6064324 46.461,2.0394324 C54.217,0.457432402 53.775,15.5884324 53.775,15.5884324 C56.975,8.5404324 60.338,-0.426567598 65.484,2.3804324 C71.028,5.4054324 66.696,18.6984324 66.696,18.6984324 C71.565,10.7174324 74.06,9.5884324 77.317,11.5504324 C82.53,14.6914324 77.338,26.9314324 77.338,26.9314324 C81.17,22.7434324 88.564,24.0974324 84.097,39.9904324 C79.17,57.5204324 69.797,94.8194324 71.536,135.035432 C71.785,140.780432 34.17,160.770432 4.68958206e-13,160.436432 C14.815,101.080432 16.205,32.5714324 19.092,24.9954324" id="SKIN" fill="#FFF"/><path d="M1.4358,145.661132 C10.9748,102.082132 13.5398,52.7891324 17.3098,24.3171324 C21.4518,16.8521324 28.6828,23.9471324 32.0948,31.1391324 C35.2798,15.1821324 39.3388,1.5451324 46.0808,0.172132402 C51.2128,-0.968867598 54.1578,3.7681324 55.0058,8.3081324 C59.7118,-3.9228676 71.2728,-2.0878676 70.1588,10.9091324 C72.6468,8.5971324 75.1898,8.0441324 78.2998,9.9171324 C82.5088,12.4531324 81.8128,18.6501324 80.6578,23.0371324 C86.4528,23.0871324 89.2928,27.2451324 85.9328,40.5061324 C77.1298,71.8211324 72.8648,101.412132 73.2538,128.459132 C61.6328,143.288132 77.5968,48.6381324 82.2628,39.4761324 C84.8588,29.8451324 83.5668,24.1821324 78.8968,28.0691324 C78.8968,28.0691324 73.0328,39.6081324 73.0328,39.6081324 C72.2788,41.1361324 69.8838,40.0361324 70.5508,38.4711324 C70.5558,38.4551324 75.5818,26.2041324 75.5828,26.1891324 C77.0618,22.6891324 79.1918,14.9051324 76.3318,13.1831324 C74.8908,12.3141324 73.3978,11.4191324 68.4258,19.5251324 L62.3738,36.7311324 C61.7728,38.5241324 58.9738,37.6061324 59.5458,35.8081324 C60.7508,29.0761324 70.3108,9.1921324 64.5718,4.0541324 C60.4268,2.5691324 57.8868,11.9491324 55.5498,16.2871324 C55.5498,16.2871324 49.8088,33.3081324 49.8088,33.3081324 C49.5618,34.0371324 48.7828,34.4561324 48.0338,34.2441324 C47.2598,34.0251324 46.8098,33.2211324 47.0288,32.4471324 L51.8728,15.3141324 C51.6728,11.4611324 51.6208,3.4181324 46.8428,3.9071324 C40.6118,5.1791324 36.0378,30.4391324 34.5348,38.7391324 C34.7348,40.5501324 35.6718,42.8701324 36.9168,44.1701324 C43.0218,48.2151324 48.6068,55.8601324 46.6968,63.5261324 C46.3818,64.7051324 44.5018,64.3041324 44.7398,63.0781324 C44.8188,62.6271324 45.0208,62.1431324 44.8588,61.7211324 C44.6638,61.2121324 44.1698,51.9441324 37.5738,48.6631324 C35.8188,47.7901324 33.6488,46.9911324 32.7808,45.2161324 C31.6598,43.4001324 31.0488,41.4941324 30.6358,39.4271324 C29.6578,31.6381324 22.9538,22.8921324 20.8728,25.6731324 C17.5988,54.0451324 14.5598,102.850132 5.1658,146.444132 C4.7168,148.826132 0.8748,148.107132 1.4358,145.661132" id="Fill-4" fill="#141414"/></g><g id="t-shirt" transform="translate(107.202677, 84.749517)"><path d="M27.0858929,69.068816 C-6.75610715,140.657816 -6.23410715,233.845816 14.0698929,265.508816 C23.5768929,280.336816 43.4698929,285.267816 52.7948929,284.571816 L37.9038929,302.365816 L286.675893,307.365816 C286.675893,307.365816 281.839893,281.978816 280.021893,274.307816 C293.596893,277.669816 309.241893,277.682816 320.209893,268.085816 C355.570893,237.144816 367.657893,154.566816 370.149893,134.449816 C340.120893,126.627816 299.953893,115.170816 299.953893,115.170816 L292.400893,137.684816 C292.400893,137.684816 291.490323,83.3614826 270.797323,51.2504826 C252.601323,23.0144826 227.797323,6.25048255 180.797323,1.25048255 C133.797323,-3.74951745 57.9268929,3.82981597 27.0858929,69.068816 Z" fill="#FF4B33"/><path d="M275.558893,228.352916 L272.644893,205.467916 L269.589893,182.602916 L266.535893,159.737916 C265.481893,152.120916 264.441893,144.501916 263.313893,136.894916 C261.069893,121.679916 258.723893,106.478916 256.058893,91.320916 C255.968893,90.819916 255.506893,90.458916 254.990893,90.509916 C254.448893,90.561916 254.051893,91.044916 254.103893,91.587916 C255.595893,106.905916 257.406893,122.179916 259.319893,137.439916 C260.269893,145.070916 261.308893,152.689916 262.332893,160.310916 L265.513893,183.158916 L268.693893,206.006916 L272.015893,228.835916 C274.215893,244.056916 276.523893,259.263916 278.926893,274.456916 C279.018893,275.038916 279.554893,275.450916 280.144893,275.382916 C280.751893,275.312916 281.186893,274.764916 281.117893,274.158916 C279.363893,258.875916 277.514893,243.606916 275.558893,228.352916" id="Fill-40" fill="#141414"/></g><path d="M328.91237,397.571233 L194.41537,382.914233 C190.31337,382.467233 187.35037,378.778233 187.79737,374.675233 L209.28337,177.525233 C209.73037,173.423233 213.41837,170.460233 217.52137,170.906233 L352.01737,185.565233 C356.12037,186.012233 359.08337,189.700233 358.63637,193.802233 L337.14937,390.953233 C336.70337,395.055233 333.01437,398.018233 328.91237,397.571233" id="notebook" fill="#141414"/><g id="hand-2" transform="translate(229.564070, 216.379433)"><path d="M9.20380059,119.9408 C28.7218006,113.1158 48.4168006,103.2178 67.2878006,91.5968003 C99.0058006,72.0668003 115.336801,55.9728003 121.994801,50.1288003 C124.396801,48.0208003 129.053801,43.1268003 127.574801,39.0388003 C126.519801,36.1238003 122.996801,34.5888003 120.514801,36.4478003 C120.514801,36.4478003 123.897801,34.0928003 125.975801,31.5368003 C127.942801,29.1178003 128.391801,25.9548003 127.049801,23.8998003 C124.981801,20.7328003 121.627801,20.9548003 118.753801,23.0178003 L121.684801,20.4968003 C124.634801,18.2058003 125.821801,14.5598003 123.718801,11.0018003 C122.152801,8.35180029 117.075801,7.85980029 113.705801,9.93680029 C112.491801,10.6858003 108.874801,12.9998003 108.874801,12.9998003 C111.362801,10.9628003 111.401801,6.47580029 109.339801,4.00880029 C107.451801,1.75180029 104.135801,1.23680029 101.709801,2.90480029 C90.5228006,10.5998003 76.9728006,18.3408003 68.4278006,22.9778003 C68.4278006,22.9778003 67.6528006,11.5358003 66.7918006,7.93980029 C65.9898006,4.58980029 60.1588006,0.188800291 57.6578006,5.20180029 C54.2658006,11.9988003 51.0188006,23.5318003 48.3348006,32.2378003 C31.0448006,41.4848003 23.0428006,45.9528003 1.50880059,52.7028003" id="SKIN" fill="#FFF"/><path d="M129.789701,39.7357003 C129.455701,37.4317003 128.020701,35.4957003 126.037701,34.4257003 C126.033701,34.4237003 126.028701,34.4237003 126.024701,34.4207003 C126.258701,34.1887003 126.493701,33.9637003 126.724701,33.7177003 C127.485701,32.9077003 128.330701,31.8477003 128.867701,30.6737003 C129.425701,29.5067003 129.782701,28.2117003 129.807701,26.8327003 C129.848701,25.4727003 129.495701,23.9547003 128.643701,22.7087003 C127.900701,21.6147003 126.811701,20.5377003 125.382701,19.9777003 C125.257701,19.9267003 125.126701,19.9037003 124.998701,19.8617003 C125.358701,19.3677003 125.691701,18.8467003 125.948701,18.2857003 C126.290701,17.5247003 126.537701,16.7117003 126.665701,15.8697003 C126.777701,15.0247003 126.762701,14.1677003 126.638701,13.3327003 C126.491701,12.5037003 126.247701,11.7027003 125.907701,10.9647003 C125.728701,10.5857003 125.561701,10.2747003 125.325701,9.87370029 C125.054701,9.44070029 124.727701,9.05770029 124.375701,8.73470029 C122.938701,7.43370029 121.272701,6.95670029 119.704701,6.76470029 C118.120701,6.59070029 116.549701,6.74670029 115.037701,7.21470029 C114.282701,7.44970029 113.542701,7.76770029 112.840701,8.18570029 L112.742701,8.24770029 C112.731701,7.46470029 112.628701,6.68470029 112.420701,5.92270029 C112.053701,4.48770029 111.226701,3.01070029 110.029701,1.96470029 C108.848701,0.900700291 107.331701,0.227700291 105.753701,0.0527002914 C104.176701,-0.141299709 102.525701,0.205700291 101.135701,1.00470029 L100.625701,1.32170029 L100.258701,1.57170029 L99.5257006,2.07070029 L98.0577006,3.06370029 C96.0937006,4.38170029 94.1027006,5.66770029 92.1047006,6.93970029 C84.9017006,11.4937003 77.5227006,15.8027003 70.0537006,19.9347003 C69.9427006,18.5607003 69.8427006,17.1857003 69.7107006,15.8087003 C69.4767006,13.4527003 69.2487006,11.1297003 68.8337006,8.69670029 C68.7867006,8.39670029 68.7157006,8.07270029 68.6467006,7.75470029 L68.5967006,7.51370029 L68.5117006,7.21070029 C68.4567006,7.00170029 68.3797006,6.82270029 68.3107006,6.62970029 C68.0097006,5.89270029 67.6207006,5.26370029 67.1857006,4.68870029 C66.3087006,3.54770029 65.2487006,2.60570029 63.9237006,1.90470029 C63.2597006,1.56070029 62.5197006,1.27970029 61.6827006,1.15470029 C60.8487006,1.03370029 59.8977006,1.09470029 59.0187006,1.43770029 C57.2247006,2.12170029 56.2177006,3.84070029 55.7627006,4.90370029 C53.6827006,9.30370029 52.1917006,13.7837003 50.7327006,18.2657003 C49.3687006,22.5127003 48.1137006,26.7737003 46.8247006,30.9987003 C39.5097006,34.9007003 32.2967006,38.9237003 24.8227006,42.2897003 C17.1317006,45.7787003 9.13270059,48.5957003 1.05270059,51.2487003 C0.269700594,51.5057003 -0.174299406,52.3437003 0.0647005942,53.1377003 C0.308700594,53.9437003 1.15870059,54.3997003 1.96470059,54.1567003 C10.1617006,51.6827003 18.3247006,48.9097003 26.2157006,45.4077003 C34.1177006,41.9247003 41.6637006,37.8387003 49.1857006,33.8287003 C49.5867006,33.6117003 49.9147006,33.2397003 50.0597006,32.7687003 C51.4457006,28.2827003 52.7677006,23.8057003 54.1997006,19.3837003 C55.6417006,14.9777003 57.1377006,10.5627003 59.0727006,6.50470029 C59.3347006,5.93570029 59.4987006,5.64670029 59.7237006,5.37070029 C59.9397006,5.10870029 60.1517006,4.95870029 60.3617006,4.86970029 C60.7617006,4.70370029 61.4557006,4.76970029 62.2147006,5.17870029 C62.9607006,5.56770029 63.6977006,6.21070029 64.2367006,6.92670029 C64.5067006,7.28370029 64.7307006,7.66370029 64.8717006,8.01070029 C64.8967006,8.09370029 64.9407006,8.18270029 64.9557006,8.25770029 L64.9897006,8.37670029 L65.0287006,8.56570029 C65.0807006,8.81970029 65.1377006,9.06570029 65.1797006,9.34470029 C65.8767006,13.7667003 66.2177006,18.5007003 66.5597006,23.1047003 L66.5607006,23.1267003 C66.5807006,23.3807003 66.6537006,23.6337003 66.7827006,23.8727003 C67.2757006,24.7807003 68.4127006,25.1177003 69.3207006,24.6247003 C77.7367006,20.0547003 86.0237006,15.2687003 94.1437006,10.1637003 C96.1687006,8.88070029 98.1877006,7.58370029 100.185701,6.24970029 L101.681701,5.24370029 L102.427701,4.73770029 L102.799701,4.48570029 L103.050701,4.33270029 C103.727701,3.95170029 104.524701,3.77370029 105.317701,3.87770029 C106.107701,3.96570029 106.873701,4.30570029 107.460701,4.84270029 C107.763701,5.11170029 108.010701,5.40870029 108.207701,5.75970029 C108.417701,6.10470029 108.580701,6.50670029 108.687701,6.92970029 C109.135701,8.49870029 108.771701,10.3767003 107.856701,11.2917003 C107.765701,11.3447003 107.674701,11.3997003 107.590701,11.4687003 C106.467701,12.3897003 105.249701,13.2957003 104.034701,14.1867003 C102.814701,15.0797003 101.579701,15.9617003 100.334701,16.8357003 C97.8487006,18.5827003 95.3287006,20.3067003 92.8057006,22.0037003 L92.7957006,22.0087003 C92.1547006,22.4417003 91.9547006,23.3047003 92.3527006,23.9797003 C92.7677006,24.6797003 93.6717006,24.9127003 94.3717006,24.4977003 C97.0167006,22.9327003 99.6367006,21.3517003 102.248701,19.7327003 C103.554701,18.9237003 104.855701,18.1037003 106.153701,17.2637003 C107.452701,16.4217003 108.741701,15.5757003 110.038701,14.6317003 C110.067701,14.6107003 110.104701,14.5827003 110.133701,14.5587003 C110.191701,14.5107003 110.238701,14.4547003 110.289701,14.4017003 L113.207701,12.5567003 L114.822701,11.5417003 C115.242701,11.2927003 115.706701,11.0907003 116.197701,10.9407003 C117.174701,10.6357003 118.253701,10.5357003 119.260701,10.6517003 C120.261701,10.7567003 121.208701,11.1257003 121.705701,11.6057003 C121.833701,11.7217003 121.931701,11.8417003 122.004701,11.9637003 C122.094701,12.1247003 122.241701,12.3877003 122.336701,12.5977003 C122.542701,13.0457003 122.672701,13.5017003 122.757701,13.9557003 C122.896701,14.8667003 122.767701,15.7747003 122.372701,16.6327003 C121.955701,17.5017003 121.351701,18.2437003 120.463701,18.9427003 L117.589701,21.4077003 C114.445701,23.7997003 111.127701,26.1197003 107.841701,28.4277003 L97.8947006,35.2947003 L97.8757006,35.3067003 C97.1907006,35.7817003 96.9977006,36.7157003 97.4497006,37.4247003 C97.9127006,38.1507003 98.8747006,38.3637003 99.6007006,37.9007003 L109.826701,31.3817003 C113.224701,29.1737003 116.605701,26.9927003 119.973701,24.6197003 C119.991701,24.6077003 120.015701,24.5897003 120.032701,24.5767003 C120.075701,24.5447003 120.108701,24.5047003 120.147701,24.4687003 C120.768701,24.0617003 121.418701,23.7497003 122.040701,23.5897003 C122.744701,23.4247003 123.373701,23.4447003 123.898701,23.6647003 C124.430701,23.8687003 124.913701,24.3127003 125.341701,24.9327003 C125.669701,25.4207003 125.837701,26.0297003 125.818701,26.7557003 C125.808701,27.4657003 125.607701,28.2407003 125.261701,28.9527003 C124.918701,29.6827003 124.451701,30.2847003 123.789701,30.9997003 C122.546701,32.3337003 121.001701,33.6207003 119.486701,34.7197003 C119.445701,34.7477003 119.400701,34.7677003 119.361701,34.7987003 L119.345701,34.8117003 L106.976701,44.4537003 L106.967701,44.4617003 C106.314701,44.9727003 106.166701,45.9117003 106.646701,46.5997003 C107.143701,47.3137003 108.124701,47.4897003 108.838701,46.9937003 L121.522701,38.1667003 C121.567701,38.1397003 121.614701,38.1197003 121.657701,38.0897003 C121.676701,38.0757003 121.693701,38.0607003 121.712701,38.0477003 L121.713701,38.0487003 C122.386701,37.5487003 123.268701,37.5027003 124.164701,37.9617003 C125.035701,38.4137003 125.708701,39.3697003 125.827701,40.2797003 C125.969701,41.2157003 125.593701,42.4597003 124.913701,43.6517003 C124.235701,44.8527003 123.298701,46.0167003 122.268701,47.0967003 C121.750701,47.6397003 121.208701,48.1577003 120.642701,48.6547003 L118.813701,50.2907003 L115.213701,53.5387003 C112.818701,55.6947003 110.399701,57.8097003 107.946701,59.8867003 C103.040701,64.0427003 98.0047006,68.0427003 92.8467006,71.8847003 C87.7037006,75.7497003 82.3587006,79.3397003 76.9867006,82.8787003 C75.6407006,83.7587003 74.3257006,84.6887003 73.0007006,85.6027003 C71.6767006,86.5177003 70.2887006,87.3367003 68.9307006,88.1997003 C66.2057006,89.9147003 63.4587006,91.5927003 60.6837006,93.2217003 C55.1417006,96.4947003 49.5187006,99.6297003 43.8047006,102.5787 C38.0957006,105.5377 32.2937006,108.3097 26.4237006,110.9177 C23.4837006,112.2087 20.5347006,113.4797 17.5507006,114.6617 C16.0647006,115.2687 14.5647006,115.8377 13.0657006,116.4097 C11.5697006,116.9917 10.0817006,117.5847 8.70070059,118.5017 L8.66270059,118.5267 C8.19070059,118.8407 7.90770059,119.4027 7.97670059,120.0047 C8.07470059,120.8617 8.84970059,121.4777 9.70670059,121.3797 C11.3657006,121.1897 12.9377006,120.7317 14.4657006,120.1597 C15.9947006,119.5897 17.5237006,119.0227 19.0387006,118.4177 C22.0807006,117.2397 25.0847006,115.9707 28.0807006,114.6837 C34.0577006,112.0787 39.9137006,109.2127 45.6927006,106.2137 C51.4717006,103.2097 57.1487006,100.0217 62.7417006,96.6967003 C68.3507006,93.3947003 73.7837006,89.8237003 79.3357006,86.4237003 C90.0897006,79.0937003 100.594701,71.3687003 110.532701,62.9387003 C113.017701,60.8337003 115.470701,58.6887003 117.885701,56.5147003 L121.492701,53.2607003 L123.282701,51.6607003 C123.931701,51.0897003 124.560701,50.4897003 125.159701,49.8617003 C126.356701,48.6007003 127.478701,47.2347003 128.397701,45.6167003 C129.282701,44.0177003 130.081701,42.0467003 129.789701,39.7357003" id="Fill-54" fill="#141414"/></g><g id="t-shirt-hand" transform="translate(158.913572, 244.177211)"><path d="M1.37429883,124.433022 C66.6102988,118.734022 127.082299,84.1120224 127.082299,84.1120224 L86.8332988,8.41102241 C86.8332988,8.41102241 43.9852988,25.0630224 15.6982988,28.0010224" id="Fill-56" fill="#FF4B33"/><line x1="30.026" y1="1.551" x2="29.522" y2="25.19" id="Fill-58" fill="#FF4B33"/><path d="M128.964199,83.1205224 L128.960199,83.1135224 L88.7111988,7.41252241 C88.2121988,6.47452241 87.0771988,6.03352241 86.0631988,6.42852241 L86.0631988,6.42852241 C80.3821988,8.65152241 74.5891988,10.7525224 68.7951988,12.7575224 C62.9901988,14.7545224 57.1531988,16.6585224 51.2771988,18.4155224 C45.4021988,20.1745224 39.4881988,21.8025224 33.5311988,23.1985224 C32.9041988,23.3465224 32.2741988,23.4795224 31.6451988,23.6215224 L31.6121988,1.58552241 C31.6101988,0.742522411 30.9451988,0.0395224106 30.0951988,0.00152241065 C29.2191988,-0.0364775894 28.4781988,0.641522411 28.4391988,1.51652241 L27.4221988,24.5275224 C23.4771988,25.3285224 19.5141988,26.0085224 15.5391988,26.4715224 L15.5251988,26.4735224 C14.6921988,26.5695224 14.0891988,27.3175224 14.1721988,28.1545224 C14.2571988,29.0005224 15.0111988,29.6175224 15.8571988,29.5325224 C22.0821988,28.9085224 28.2131988,27.8105224 34.2761988,26.4875224 C40.3401988,25.1675224 46.3421988,23.6165224 52.3011988,21.9345224 C58.2611988,20.2555224 64.1741988,18.4305224 70.0561988,16.5105224 C75.3421988,14.7745224 80.5851988,12.9705224 85.8251988,11.0445224 L124.214199,83.2455224 C115.238199,88.1825224 105.878199,92.6715224 96.4361988,96.8115224 C86.3331988,101.209522 76.0521988,105.212522 65.6101988,108.731522 C55.1681988,112.246522 44.5691988,115.313522 33.8271988,117.743522 C23.0941988,120.218522 12.2071988,121.991522 1.25519883,123.062522 L1.24119883,123.063522 C0.492198832,123.137522 -0.0598011677,123.800522 0.00519883232,124.551522 C0.0701988323,125.308522 0.737198832,125.869522 1.49419883,125.804522 C12.5941988,124.846522 23.6291988,123.174522 34.5031988,120.796522 C45.3891988,118.463522 56.1281988,115.486522 66.7111988,112.057522 C77.2951988,108.622522 87.7151988,104.699522 97.9671988,100.375522 C108.219199,96.0125224 118.275199,91.3415224 128.139199,85.9575224 C129.131199,85.3925224 129.504199,84.1365224 128.964199,83.1205224" id="Fill-60" fill="#141414"/></g><g id="neck" transform="translate(233.000107, 48.999715)"><path d="M12.353793,1.94308464 C12.353793,1.94308464 14.0672434,20.8907008 13.115793,26.9240846 C11.999893,34.0002846 6.99989304,35.0002846 2.99989304,38.0002846 C9.61289304,56.5222846 33.567793,68.9110846 53.526793,71.9430846 C57.845793,72.5990846 73.464893,57.0412846 71.999893,40.0002846 C70.999893,35.0002846 70.888893,31.0872846 70.999893,27.0002846 L71.617793,4.59108464" id="SKIN" fill="#FFF"/><path d="M55.902793,70.4317846 C55.902793,70.4317846 35.999893,62.0002846 2.99989304,38.0002846 C-1.34110696,65.8692846 10.532793,140.657785 55.548793,75.9847846 C55.548793,75.9847846 78.067793,100.753785 85.288793,95.0427846 C103.442793,80.6847846 72.809793,40.2907846 72.809793,40.2907846 C70.372793,57.4207846 55.902793,70.4317846 55.902793,70.4317846 Z" id="Fill-3" fill="#FFC81A"/><path d="M57.028593,74.6348846 C56.185593,73.6748846 54.523593,73.8148846 53.858593,74.9148846 C18.768593,126.796885 1.03359304,84.8278846 4.00859304,39.8548846 C22.450593,55.3508846 41.294593,66.7688846 55.208593,72.3048846 C61.451593,71.4038846 71.636593,54.0178846 73.838593,45.2148846 C74.178593,45.7148846 81.134593,55.1708846 84.038593,63.1048846 C88.658593,73.3048846 92.408593,86.8548846 84.048593,93.4748846 C81.278593,95.6648846 70.168593,89.0848846 57.028593,74.6348846 Z M73.618593,4.64488464 C73.648593,3.54488464 72.778593,2.62488464 71.668593,2.59488464 C70.558593,2.55488464 69.648593,3.43488464 69.618593,4.53488464 L68.828593,33.5648846 C73.511593,46.6908846 58.543593,65.2248846 55.448593,68.0948846 C50.588593,66.0548846 31.979893,58.0702846 7.99989304,38.0002846 C10.999893,36.0002846 14.708593,34.4148846 15.108593,27.0348846 C15.438593,20.8848846 14.398593,2.60488464 14.348593,1.82488464 C14.231593,-0.74311536 10.167593,-0.54111536 10.358593,2.05488464 C10.368593,2.24488464 11.438593,20.8948846 11.118593,26.8148846 C10.557593,32.4928846 3.02259304,34.0998846 1.21459304,37.7168846 C-4.66040696,73.4018846 10.339593,139.667885 55.798593,79.1948846 C62.108593,85.8548846 79.128593,102.474885 86.528593,96.6148846 C105.998593,81.2148846 73.872593,37.9908846 73.751593,37.8688846 C71.070593,35.1748846 73.791593,8.53188464 73.618593,4.64488464 Z" id="Fill-7" fill="#141414"/></g></g></g><g id="Head" transform="translate(412.576956, 0.000000) scale(0.939811111111111 0.9403950000000001)" blush:width="169.166" blush:height="188.079" blush:component="Head"><g id="Head/Short Hair 4" stroke="none" stroke-width="1" fill="none" fill-rule="evenodd"><g id="Short-Hair" transform="translate(4.000076, -0.999876)"><path d="M148.656724,91.1807762 C141.372724,46.6367762 119.609724,45.3307762 78.981724,48.3837762 C59.904724,49.8167762 36.092724,67.0937762 38.223724,98.4007762 C27.074724,94.1317762 20.822724,101.159776 21.199724,109.557776 C21.539724,117.097776 24.951724,127.030776 38.822724,127.030776 C40.166724,150.025776 55.176724,187.069776 102.317724,187.069776 C150.451724,187.069776 154.972724,129.807776 148.656724,91.1807762" id="SKIN" fill="#FFF"/><path d="M134.120624,171.340376 C114.076624,195.314376 68.521624,185.620376 53.235624,162.175376 C45.079624,152.308376 40.867624,133.557376 40.819624,126.914376 C40.812624,125.854376 39.881624,125.030376 38.822624,125.030376 C23.856624,125.935376 18.866624,107.491376 26.850624,100.631376 C30.598624,97.8083762 35.746624,98.7553762 39.558624,100.937376 C40.125624,101.262376 55.261624,100.025376 64.936624,71.0023762 C83.792624,81.9793762 119.158624,87.3553762 143.696624,78.2193762 C151.496624,107.091376 152.336624,149.278376 134.120624,171.340376 M42.971624,31.4713762 C52.315624,-1.92862383 106.582624,-10.0816238 126.499624,13.4813762 C148.543624,3.23737617 176.870624,6.21937617 180.716624,30.2633762 C182.976624,50.3173762 166.339624,67.3323762 147.377624,76.6643762 C155.704624,107.035376 156.648624,150.335376 137.170624,173.929376 C111.316624,204.847376 55.094624,183.990376 44.703624,155.778376 C33.897624,153.042376 28.481624,145.170376 24.224624,131.587376 C7.74362396,123.486376 -18.849376,64.6143762 20.356624,36.5423762 C27.497624,31.7913762 35.456624,30.0203762 42.971624,31.4713762 Z M32.783224,107.032276 C29.827224,106.929276 29.827224,115.161276 32.783224,115.058276 C35.739224,115.161276 35.739224,106.928276 32.783224,107.032276 Z" id="hair" fill="#141414"/></g></g></g><g id="Face" transform="translate(468.965606, 80.874172) scale(0.939811111111111 0.9403999999999999)" blush:width="84.583" blush:height="84.636" blush:component="Face"><g id="Face/Normal Face 2" stroke="none" stroke-width="1" fill="none" fill-rule="evenodd"><path d="M34.2442,65.8882 C35.2702,64.9612 36.8542,65.0412 37.7812,66.0672 C37.8362,66.1272 37.8892,66.1932 37.9372,66.2582 C37.9802,66.3152 38.1692,66.5362 38.3222,66.6852 C38.4792,66.8532 38.6612,67.0152 38.8352,67.1812 C39.1982,67.5062 39.5832,67.8202 39.9862,68.1162 C40.7902,68.7112 41.6692,69.2282 42.5902,69.6642 C44.4252,70.5622 46.4512,71.1012 48.5372,71.3392 C52.7582,71.8822 57.2432,71.4512 61.0952,69.5392 L61.0952,69.5392 L61.1112,69.5312 C61.7742,69.2012 62.5792,69.4722 62.9092,70.1362 C63.2152,70.7542 62.9962,71.4992 62.4272,71.8642 C60.3322,73.1982 58.0002,74.1412 55.5922,74.7232 C53.1742,75.2872 50.7132,75.5762 48.2112,75.4512 C45.6972,75.3262 43.1542,74.8272 40.7642,73.8452 C39.5662,73.3672 38.4032,72.7812 37.3002,72.0722 C36.7482,71.7192 36.2112,71.3362 35.6852,70.9232 C35.4252,70.7082 35.1642,70.5002 34.9082,70.2632 C34.6382,70.0202 34.4272,69.8242 34.0882,69.4482 L34.0882,69.4482 L34.0662,69.4242 C33.1392,68.3982 33.2182,66.8152 34.2442,65.8882 Z M50.5487,25.5674 C51.2857,25.5844 51.8787,26.1634 51.9247,26.8864 L51.9247,26.8864 L51.9257,26.9054 C52.1227,30.1454 52.3497,33.4104 52.6527,36.6194 C52.8167,38.2124 53.0017,39.8344 53.3067,41.2864 C53.3627,41.5454 53.4267,41.7874 53.4917,41.9994 C54.2557,42.3124 55.0207,42.6744 55.7797,43.1254 C56.5897,43.6244 57.4147,44.2214 58.1257,45.0504 C58.8487,45.8574 59.4137,46.9404 59.6617,48.0494 C59.9067,49.1754 59.9107,50.1734 59.7377,51.2644 C59.5637,52.3424 59.0947,53.4764 58.3417,54.3734 C57.5967,55.2774 56.6387,55.9174 55.6837,56.3264 C54.7197,56.7354 53.7547,56.9374 52.8127,57.0494 C51.8707,57.1544 50.9467,57.1614 50.0427,57.0944 C49.6217,57.0664 49.0677,57.0134 48.6647,56.9164 C48.2147,56.8144 47.8807,56.7204 47.3057,56.4744 C46.5957,56.1714 46.2657,55.3504 46.5697,54.6404 C46.7477,54.2224 47.1067,53.9364 47.5157,53.8334 L47.5157,53.8334 L48.0587,53.7004 C48.2797,53.6464 48.7597,53.6634 49.1197,53.6824 C49.5267,53.7094 49.7887,53.7294 50.1867,53.7304 C50.9187,53.7374 51.6387,53.6824 52.3197,53.5634 C53.6837,53.3234 54.8547,52.7604 55.4057,52.0114 C55.6897,51.6364 55.8617,51.1994 55.9297,50.6594 C56.0027,50.1344 55.9627,49.4604 55.8247,48.9954 C55.5757,48.0634 54.8177,47.2804 53.6557,46.5034 C53.0877,46.1224 52.4497,45.7684 51.7667,45.4554 L51.7667,45.4554 L51.5137,45.3344 L51.3567,45.2604 C51.2017,45.1854 51.0047,45.0564 50.9157,44.9784 C50.8197,44.8964 50.7227,44.8044 50.6407,44.7134 L50.6407,44.7134 L50.4757,44.5034 C50.1207,43.9754 50.0697,43.7124 49.9637,43.4184 C49.7987,42.8724 49.7167,42.4184 49.6427,41.9674 C49.3707,40.1914 49.2827,38.5434 49.1977,36.8714 C49.0357,33.5424 49.0307,30.2574 49.1067,26.9454 C49.1247,26.1664 49.7697,25.5494 50.5487,25.5674 Z M16.7508,30.7827 C17.1588,27.9607 19.5578,25.9717 22.1088,26.3407 C24.6598,26.7097 26.3968,29.2967 25.9888,32.1187 C25.5808,34.9417 23.1818,36.9297 20.6298,36.5617 C18.0798,36.1927 16.3428,33.6047 16.7508,30.7827 Z M69.9618,24.6142 C72.5128,24.2452 74.9108,26.2342 75.3188,29.0562 C75.7278,31.8792 73.9908,34.4662 71.4408,34.8352 C68.8888,35.2042 66.4898,33.2152 66.0818,30.3932 C65.6738,27.5712 67.4098,24.9832 69.9618,24.6142 Z M30.2504,10.5639 C31.9014,10.4139 33.3624,11.6309 33.5124,13.2829 C33.6624,14.9339 32.4454,16.3949 30.7934,16.5439 C30.7254,16.5509 30.6564,16.5549 30.5884,16.5559 L30.5884,16.5559 L30.5414,16.5569 C27.0124,16.6259 23.7144,16.1709 20.7474,16.1799 C19.2624,16.1819 17.8524,16.3239 16.4984,16.6889 C15.1454,17.0589 13.8434,17.6039 12.4334,18.2039 L12.4334,18.2039 L12.3614,18.2339 C11.4994,18.6019 10.5024,18.1999 10.1354,17.3379 C9.8664,16.7059 10.0124,16.0009 10.4484,15.5249 C11.6784,14.1879 13.2804,13.1399 15.0244,12.4399 C16.7654,11.7229 18.6144,11.3109 20.3944,11.0869 C22.1774,10.8629 23.8954,10.8339 25.5334,10.7749 C27.1724,10.7219 28.7384,10.7019 30.2504,10.5639 Z M63.2758,8.1334 C65.0538,7.9614 66.8968,7.9424 68.7778,8.1544 C70.6498,8.3724 72.5888,8.8374 74.3148,9.7474 C76.0488,10.6384 77.5278,11.8974 78.6678,13.3124 C79.3278,14.1314 79.1978,15.3314 78.3788,15.9914 C77.6788,16.5554 76.7028,16.5434 76.0218,16.0194 L76.0218,16.0194 L75.9948,15.9984 C73.6308,14.1784 71.2348,13.0974 68.4248,13.0444 C67.0288,13.0184 65.5758,13.2594 64.1118,13.5884 C62.6468,13.9194 61.1678,14.3794 59.6998,14.9214 C58.0748,15.5204 56.2718,14.6894 55.6718,13.0644 C55.0728,11.4394 55.9038,9.6354 57.5288,9.0364 C57.7018,8.9734 57.8938,8.9224 58.0678,8.8904 C59.7718,8.5884 61.4978,8.3074 63.2758,8.1334 Z" id="Normal-face-2" fill="#141414"/></g></g><g id="Accessories" transform="translate(461.447120, 78.993377) scale(0.9398155339805826 0.9404)" fill="#000" blush:width="96.801" blush:height="56.424" blush:component="Accessories"><g id="Accessories/None" stroke="none" stroke-width="1" fill="none" fill-rule="evenodd" fill-opacity="0"/></g><g id="Facial Hair" transform="translate(470.845228, 133.536424) scale(0.939811111111111 0.9404)" fill="#000" blush:width="84.583" blush:height="56.424" blush:component="Facial Hair"><g id="Facial Hair/None" stroke="none" stroke-width="1" fill="none" fill-rule="evenodd" fill-opacity="0"/></g></g></g></svg>